
<svg width="2016" height="247" viewBox="0 0 2016 247" fill="none" xmlns="http://www.w3.org/2000/svg">
<path d="M236.577 118.398C236.632 173.107 276.664 200.379 317.134 201.036C358.754 201.693 400.812 174.038 400.757 118.179C400.703 62.1017 360.397 34.5558 319.708 34.1724C278.362 33.9534 236.522 62.266 236.577 118.398ZM264.014 118.344C263.959 78.2021 291.833 58.3778 319.544 58.5421C346.706 58.7611 373.978 78.5854 373.978 118.234C374.033 157.664 345.939 177.324 318.065 176.885C290.848 176.447 264.068 156.897 264.014 118.344ZM420.472 197.038H449.332C455.028 197.038 457.109 195.888 457.054 193.369C457.054 187.893 448.84 189.481 448.84 179.459L448.785 144.575C448.785 135.923 452.673 136.361 454.754 136.361H497.469C503.658 136.306 505.246 137.018 506.889 140.906L523.372 179.405C527.48 189.207 518.553 187.181 518.608 193.534C518.608 196.272 520.634 196.929 529.78 196.929H551.959C555.847 196.929 559.516 196.929 559.516 193.26C559.516 187.126 552.178 188.276 549.44 181.65L530.163 135.868C529.068 133.13 529.287 131.268 532.463 129.241C541.17 123.546 553.711 107.555 553.711 89.3191C553.656 53.5039 526.22 37.3487 496.484 37.4035L427.208 37.4582C417.57 37.4582 414.394 38.3892 414.394 41.1274C414.394 46.8228 423.101 43.3727 423.101 58.4326L423.21 179.021C423.21 188.386 414.777 188.605 414.777 193.643C414.777 197.093 418.665 197.038 420.472 197.038ZM456.78 113.579C452.399 113.579 449.004 112.21 449.004 108.103L448.73 68.4542C448.73 62.9779 451.468 61.6088 455.795 61.6088L496.484 61.5541C518.444 61.5541 526.932 72.9448 526.932 89.3191C526.932 103.722 514.829 113.524 499.769 113.524L456.78 113.579ZM627.861 196.874L660.335 196.819C663.785 196.819 665.812 196.107 665.812 192.712C665.812 188.605 658.035 189.536 658.035 180.883L658.145 65.497C658.145 61.1707 659.952 59.3635 664.114 59.3635L693.358 59.3088C702.284 59.3088 700.203 66.1542 704.803 66.1542C707.76 66.1542 709.129 63.416 709.129 54.7087V41.9488C709.129 38.5535 706.829 37.1844 703.598 37.1844L581.312 37.294C577.205 37.294 575.343 38.663 575.343 42.5512L575.397 56.954C575.397 63.5256 576.548 65.3875 579.505 65.3327C583.831 65.3327 581.312 59.1993 594.565 59.1993L624.082 59.3635C629.558 59.3635 630.489 61.6636 630.489 65.7709L630.161 180.664C630.161 188.879 622.165 189.098 622.165 193.205C622.165 196.162 624.465 196.874 627.861 196.874ZM731.911 196.765L849.652 196.6C852.39 196.6 853.54 195.012 853.54 191.836V174.038C853.54 169.712 853.54 166.042 849.433 166.097C843.683 166.097 847.79 174.038 836.399 174.038L765.974 174.147C761.593 174.147 759.073 173.928 759.073 168.671V132.418C758.8 128.803 761.1 126.941 765.481 126.941L810.715 126.887C817.342 126.887 818.273 133.732 821.011 133.732C824.242 133.732 825.83 131.925 825.83 125.518L825.775 107.062C825.775 102.024 825.556 98.4097 821.449 98.4097C818.218 98.4097 818.272 104.543 810.715 104.543L764.057 104.598C759.95 104.598 758.8 103.229 758.8 98.2455L758.745 64.2375C758.745 61.0612 760.333 59.6921 763.071 59.6921L834.428 59.6374C847.023 59.5826 844.504 67.1399 849.049 67.1399C853.43 67.1399 853.43 61.8827 853.43 59.1445L853.376 42.0584C853.376 37.7321 850.419 37.0201 847.68 37.0201L738.154 37.1297C731.308 37.1844 723.532 36.2535 723.532 40.1416C723.532 47.6442 732.678 41.9488 732.678 56.7897L733.061 179.405C733.061 190.357 722.984 187.838 722.984 194.026C722.984 197.422 729.885 196.765 731.911 196.765ZM948.664 196.491L1041.27 196.436C1043.35 196.436 1045.16 196.162 1046.96 193.205L1056.6 177.926C1057.7 176.119 1058.41 171.573 1056.55 170.423C1052 167.685 1050.41 173.6 1041.27 173.6L979.769 173.709C976.976 173.709 975.169 173.216 975.169 168.233L975.06 53.7777C975.06 43.537 982.562 44.4132 982.562 40.744C982.562 37.3487 979.167 36.9106 974.129 36.9106H948.5C943.461 36.9106 940.723 38.0606 940.723 40.7988C940.723 45.3989 948.992 41.2369 948.992 54.9277L949.102 178.966C949.102 189.7 940.449 186.962 940.449 192.876C940.449 196.272 943.407 196.545 948.664 196.491ZM1071 196.381H1096.85C1103.48 196.381 1106.87 195.888 1106.87 192.493C1106.87 184.717 1100.03 190.193 1103.42 176.995L1105.51 169C1106.66 166.48 1109.39 165.823 1111.69 165.823L1167 165.714C1169.96 165.714 1171.82 166.207 1172.97 169.383L1177.08 180.774C1179.82 188.55 1171.82 185.812 1171.82 192.383C1171.82 195.834 1174.12 196.272 1179.38 196.272H1206.82C1213.23 196.217 1215.53 195.779 1215.53 191.891C1215.47 186.688 1208.84 188.276 1205.45 179.35L1156.38 53.3396C1153.15 45.3989 1160.71 46.0561 1160.71 41.0179C1160.71 37.8416 1158.63 36.6916 1154.96 36.6916L1121.39 36.7463C1117.94 36.7463 1115.86 37.8963 1115.86 41.0726C1115.91 45.3989 1121.83 45.1799 1119.09 53.3944L1075.77 178.364C1072.37 188.386 1064.6 186.36 1064.6 192.055C1064.6 195.724 1067.77 196.381 1071 196.381ZM1117.12 143.206C1114.38 143.206 1113.01 141.837 1113.94 139.099L1136.06 75.0258C1136.72 72.9996 1138.8 72.7258 1139.68 75.2449L1162.4 138.168C1163.34 140.687 1162.84 143.151 1160.1 143.151L1117.12 143.206ZM1235.4 196.217H1262.13C1268.1 196.217 1270.62 196.655 1270.62 192.986C1270.62 186.633 1260.98 190.96 1260.98 176.612L1260.92 104.981C1260.92 99.7788 1263.66 98.6288 1267.77 102.024L1347.89 169.657C1350.85 172.614 1352.65 176.064 1352.65 178.528L1352.71 190.631C1352.71 193.588 1353.86 196.107 1357.03 196.107L1378.56 196.053C1381.51 196.053 1385.62 196.053 1385.62 192.219C1385.62 186.25 1378.28 187.619 1378.28 178.747L1378.17 58.3778C1378.12 42.4417 1386.39 46.4942 1386.39 40.7988C1386.39 36.9106 1381.79 36.4725 1373.35 36.4725L1357.8 36.5273C1347.94 36.5273 1344.27 36.5273 1344.27 40.4155C1344.33 46.3299 1352.54 41.7845 1352.54 59.7469L1352.65 133.403C1352.65 138.661 1349.91 139.318 1346.9 136.58L1265.2 66.7018C1262.24 63.7446 1260.65 62.5946 1260.65 58.4873L1260.6 42.5512C1260.6 38.444 1258.3 36.6368 1253.97 36.6368H1237.76C1230.42 36.6368 1227.46 36.8558 1227.46 40.0869C1227.46 45.0703 1235.24 42.3322 1235.46 56.242L1235.62 176.174C1236.06 190.083 1226.92 186.907 1226.92 193.041C1226.92 196.217 1230.8 196.217 1235.4 196.217ZM1548.6 172.395L1532.11 153.283C1530.3 150.982 1527.79 150.763 1525.76 152.844C1522.75 155.802 1528 157.609 1521.38 164.235C1516.18 169.492 1505.88 175.626 1483.7 175.681C1453.25 175.681 1429.49 147.916 1429.43 115.332C1429.38 81.5974 1452.7 56.6801 1485.4 56.6801C1503.69 56.6254 1513.77 59.8564 1521.32 66.428C1525.87 70.5353 1524.5 74.4234 1527.02 75.7925C1530.47 77.5997 1532.28 75.5187 1534.36 72.3424L1543.94 57.5016C1546.19 53.8872 1548.49 49.78 1545.75 47.699C1542.52 45.2346 1538.19 50.711 1532.71 46.6037C1524.23 40.1964 1510.97 33.4058 1485.34 33.4058C1433.7 33.4605 1402.43 70.2067 1402.43 115.332C1402.49 154.104 1427.02 188.057 1464.04 197.148L1456.98 211.058C1454.02 216.972 1455.61 220.148 1465.68 220.148C1469.35 220.148 1482.11 217.191 1485.34 217.191C1493.78 217.136 1491.31 229.458 1484.19 229.458C1477.79 229.458 1473.02 228.144 1465.25 225.187C1462.01 223.818 1460.86 224.694 1459.28 227.432C1456.98 231.539 1456.54 233.62 1459.28 235.427C1465.9 240.192 1475.76 243.642 1485.34 243.587C1499.31 243.587 1508.45 235.811 1509.82 224.201C1510.48 215.11 1507.03 205.965 1497.88 204.377C1490.6 203.227 1485.78 205.746 1483.48 206.677C1479.59 208.265 1477.79 207.608 1479.59 203.5L1481.4 199.393H1483.7C1515.52 199.338 1528.77 188.167 1536.77 182.471C1544.49 176.995 1546.35 180.39 1548.65 178.09C1550.68 176.064 1550.24 174.257 1548.6 172.395ZM1558.73 195.888L1584.52 195.834C1591.15 195.834 1594.6 195.395 1594.6 192C1594.6 184.224 1587.75 189.7 1591.15 176.447L1593.23 168.507C1594.32 165.988 1597.06 165.276 1599.36 165.276L1654.73 165.221C1657.68 165.221 1659.49 165.714 1660.64 168.89L1664.8 180.281C1667.54 188.002 1659.55 185.319 1659.55 191.891C1659.55 195.341 1661.85 195.779 1667.1 195.779L1694.54 195.724C1700.95 195.724 1703.19 195.286 1703.19 191.398C1703.19 186.14 1696.57 187.783 1693.12 178.857L1644.05 52.8467C1640.87 44.8513 1648.43 45.5632 1648.37 40.525C1648.37 37.3487 1646.35 36.1987 1642.68 36.1987L1609.05 36.2534C1605.66 36.2534 1603.58 37.4035 1603.58 40.5797C1603.58 44.906 1609.55 44.687 1606.81 52.9015L1563.49 177.871C1560.1 187.893 1552.32 185.867 1552.32 191.562C1552.32 195.231 1555.5 195.888 1558.73 195.888ZM1604.84 142.713C1602.1 142.713 1600.73 141.344 1601.61 138.606L1623.73 74.533C1624.44 72.5067 1626.47 72.2329 1627.4 74.752L1650.13 137.675C1651 140.139 1650.56 142.658 1647.83 142.658L1604.84 142.713ZM1724.71 195.724L1788.95 195.669C1835.61 195.615 1865.07 159.799 1865.02 114.62C1864.96 69.0566 1834.95 36.0344 1788.57 36.0892L1725.21 36.1439C1720.44 36.1439 1714.91 35.7058 1714.91 39.5392C1714.97 45.2894 1723.4 42.2774 1723.4 56.1873L1723.56 176.338C1723.56 188.221 1714.64 185.264 1714.64 191.179C1714.64 195.286 1720.11 195.724 1724.71 195.724ZM1754.4 172.231C1750.07 172.231 1748.92 171.3 1748.92 166.042L1748.81 64.6208C1748.81 61.6636 1750.62 59.8017 1754.29 59.8017L1781.28 59.5826C1814.85 59.3088 1837.31 73.3829 1837.36 114.236C1837.36 153.885 1816.11 172.121 1781.39 172.176L1754.4 172.231ZM1871.48 195.615L1897.33 195.56C1903.95 195.56 1907.35 195.122 1907.35 191.672C1907.35 183.95 1900.5 189.426 1903.9 176.174L1905.98 168.178C1907.13 165.714 1909.87 165.002 1912.17 165.002L1967.48 164.947C1970.44 164.947 1972.3 165.385 1973.45 168.561L1977.56 180.007C1980.29 187.729 1972.3 184.99 1972.3 191.617C1972.3 195.012 1974.6 195.505 1979.86 195.505L2007.29 195.45C2013.7 195.45 2016 195.012 2016 191.124C2015.95 185.867 2009.32 187.455 2005.92 178.583L1956.86 52.5729C1953.62 44.5775 1961.18 45.2346 1961.18 40.2512C1961.18 37.0749 1959.1 35.9249 1955.43 35.9249L1921.86 35.9796C1918.41 35.9796 1916.33 37.0749 1916.33 40.3059C1916.39 44.6322 1922.3 44.4132 1919.56 52.6277L1876.24 177.597C1872.85 187.619 1865.07 185.593 1865.07 191.288C1865.07 194.903 1868.25 195.615 1871.48 195.615ZM1917.59 142.439C1914.85 142.439 1913.48 141.07 1914.41 138.332L1936.54 74.2592C1937.2 72.1782 1939.28 71.9591 1940.15 74.4782L1962.88 137.346C1963.81 139.866 1963.32 142.385 1960.58 142.385L1917.59 142.439Z" fill="white"/>
<g filter="url(#filter0_d_10_148)">
<path d="M117.741 20.3081V223.389" stroke="url(#paint0_linear_10_148)" stroke-width="30" stroke-linecap="round" stroke-linejoin="round"/>
<path d="M183.457 50.77H84.883C72.6827 50.77 60.9821 54.5143 52.3553 61.1792C43.7284 67.844 38.8818 76.8835 38.8818 86.3091C38.8818 95.7346 43.7284 104.774 52.3553 111.439C60.9821 118.104 72.6827 121.848 84.883 121.848H150.599C162.799 121.848 174.5 125.592 183.127 132.257C191.754 138.922 196.6 147.962 196.6 157.387C196.6 166.813 191.754 175.852 183.127 182.517C174.5 189.182 162.799 192.926 150.599 192.926H38.8818" stroke="url(#paint1_linear_10_148)" stroke-width="30" stroke-linecap="round" stroke-linejoin="round"/>
</g>
<defs>
<filter id="filter0_d_10_148" x="-4" y="0" width="223.22" height="251.696" filterUnits="userSpaceOnUse" color-interpolation-filters="sRGB">
<feFlood flood-opacity="0" result="BackgroundImageFix"/>
<feColorMatrix in="SourceAlpha" type="matrix" values="0 0 0 0 0 0 0 0 0 0 0 0 0 0 0 0 0 0 127 0" result="hardAlpha"/>
<feOffset dy="4"/>
<feGaussianBlur stdDeviation="2"/>
<feComposite in2="hardAlpha" operator="out"/>
<feColorMatrix type="matrix" values="0 0 0 0 0 0 0 0 0 0 0 0 0 0 0 0 0 0 0.25 0"/>
<feBlend mode="normal" in2="BackgroundImageFix" result="effect1_dropShadow_10_148"/>
<feBlend mode="normal" in="SourceGraphic" in2="effect1_dropShadow_10_148" result="shape"/>
</filter>
<linearGradient id="paint0_linear_10_148" x1="500.325" y1="121.848" x2="-263.842" y2="121.848" gradientUnits="userSpaceOnUse">
<stop stop-color="#FF9E00"/>
<stop offset="1" stop-color="#FFD400"/>
</linearGradient>
<linearGradient id="paint1_linear_10_148" x1="196.6" y1="121.848" x2="38.8818" y2="121.848" gradientUnits="userSpaceOnUse">
<stop stop-color="#FF9E00"/>
<stop offset="1" stop-color="#FFD400"/>
</linearGradient>
</defs>
</svg>
